HIERARCHY
ROOT root
{
	OFFSET 0.000000 0.000000 0.000000
	CHANNELS 6 Xposition Yposition Zposition Xrotation Yrotation Zrotation
	JOINT spine1
	{
		OFFSET 0.006396 -0.000000 0.961858
		CHANNELS 6 Xposition Yposition Zposition Xrotation Yrotation Zrotation
		JOINT spine2
		{
			OFFSET 0.004518 -0.000000 0.238221
			CHANNELS 6 Xposition Yposition Zposition Xrotation Yrotation Zrotation
			JOINT chest
			{
				OFFSET -0.000153 0.000000 0.205591
				CHANNELS 6 Xposition Yposition Zposition Xrotation Yrotation Zrotation
				JOINT l_shoulder
				{
					OFFSET 0.011130 -0.000000 0.203436
					CHANNELS 6 Xposition Yposition Zposition Xrotation Yrotation Zrotation
					JOINT l_arm1
					{
						OFFSET -0.023968 0.201341 -0.039879
						CHANNELS 6 Xposition Yposition Zposition Xrotation Yrotation Zrotation
						JOINT l_arm2
						{
							OFFSET 0.002834 0.255826 -0.019338
							CHANNELS 6 Xposition Yposition Zposition Xrotation Yrotation Zrotation
							JOINT l_arm2.001
							{
								OFFSET 0.000000 0.278303 0.000000
								CHANNELS 6 Xposition Yposition Zposition Xrotation Yrotation Zrotation
								JOINT l_arm2.002
								{
									OFFSET 0.000000 0.097545 0.027868
									CHANNELS 6 Xposition Yposition Zposition Xrotation Yrotation Zrotation
									JOINT l_arm2.003
									{
										OFFSET 0.000000 0.073227 -0.001151
										CHANNELS 6 Xposition Yposition Zposition Xrotation Yrotation Zrotation
										End Site
										{
											OFFSET 0.000000 0.069050 -0.006363
										}
									}
								}
								JOINT l_thumb1
								{
									OFFSET 0.036186 0.069959 -0.025989
									CHANNELS 6 Xposition Yposition Zposition Xrotation Yrotation Zrotation
									JOINT l_thumb2
									{
										OFFSET 0.020316 0.016822 -0.014415
										CHANNELS 6 Xposition Yposition Zposition Xrotation Yrotation Zrotation
										JOINT l_thumb3
										{
											OFFSET 0.007269 0.030947 -0.011068
											CHANNELS 6 Xposition Yposition Zposition Xrotation Yrotation Zrotation
											End Site
											{
												OFFSET 0.004416 0.030806 0.000000
											}
										}
									}
								}
							}
						}
					}
				}
				JOINT neck
				{
					OFFSET 0.011130 -0.000000 0.203436
					CHANNELS 6 Xposition Yposition Zposition Xrotation Yrotation Zrotation
					JOINT Chest.002
					{
						OFFSET -0.034927 0.000000 0.167239
						CHANNELS 6 Xposition Yposition Zposition Xrotation Yrotation Zrotation
						End Site
						{
							OFFSET -0.000000 0.000000 0.197672
						}
					}
				}
				JOINT r_shoulder
				{
					OFFSET 0.011130 -0.000000 0.203436
					CHANNELS 6 Xposition Yposition Zposition Xrotation Yrotation Zrotation
					JOINT r_arm1
					{
						OFFSET -0.023968 -0.201341 -0.039879
						CHANNELS 6 Xposition Yposition Zposition Xrotation Yrotation Zrotation
						JOINT r_arm2
						{
							OFFSET 0.002834 -0.255826 -0.019338
							CHANNELS 6 Xposition Yposition Zposition Xrotation Yrotation Zrotation
							JOINT r_arm2.001
							{
								OFFSET -0.000000 -0.278303 0.000000
								CHANNELS 6 Xposition Yposition Zposition Xrotation Yrotation Zrotation
								JOINT r_arm2.002
								{
									OFFSET -0.000000 -0.097545 0.027868
									CHANNELS 6 Xposition Yposition Zposition Xrotation Yrotation Zrotation
									JOINT r_arm2.003
									{
										OFFSET -0.000000 -0.073227 -0.001151
										CHANNELS 6 Xposition Yposition Zposition Xrotation Yrotation Zrotation
										End Site
										{
											OFFSET -0.000000 -0.069050 -0.006363
										}
									}
								}
								JOINT r_thumb1
								{
									OFFSET 0.036186 -0.069959 -0.025989
									CHANNELS 6 Xposition Yposition Zposition Xrotation Yrotation Zrotation
									JOINT r_thumb2
									{
										OFFSET 0.020316 -0.016822 -0.014415
										CHANNELS 6 Xposition Yposition Zposition Xrotation Yrotation Zrotation
										JOINT r_thumb3
										{
											OFFSET 0.007269 -0.030947 -0.011068
											CHANNELS 6 Xposition Yposition Zposition Xrotation Yrotation Zrotation
											End Site
											{
												OFFSET 0.004416 -0.030806 0.000000
											}
										}
									}
								}
							}
						}
					}
				}
			}
		}
	}
	JOINT l_hip
	{
		OFFSET 0.006396 -0.000000 0.961858
		CHANNELS 6 Xposition Yposition Zposition Xrotation Yrotation Zrotation
		JOINT l_leg1
		{
			OFFSET -0.008190 0.093423 -0.082916
			CHANNELS 6 Xposition Yposition Zposition Xrotation Yrotation Zrotation
			JOINT l_leg2
			{
				OFFSET 0.000000 0.000000 -0.363962
				CHANNELS 6 Xposition Yposition Zposition Xrotation Yrotation Zrotation
				JOINT l_foot
				{
					OFFSET 0.000000 0.000000 -0.485475
					CHANNELS 6 Xposition Yposition Zposition Xrotation Yrotation Zrotation
					End Site
					{
						OFFSET 0.212586 -0.012401 -0.015962
					}
				}
			}
		}
	}
	JOINT r_hip
	{
		OFFSET 0.006396 -0.000000 0.961858
		CHANNELS 6 Xposition Yposition Zposition Xrotation Yrotation Zrotation
		JOINT r_leg1
		{
			OFFSET -0.008190 -0.093423 -0.082916
			CHANNELS 6 Xposition Yposition Zposition Xrotation Yrotation Zrotation
			JOINT r_leg2
			{
				OFFSET 0.000000 0.000000 -0.363962
				CHANNELS 6 Xposition Yposition Zposition Xrotation Yrotation Zrotation
				JOINT r_foot
				{
					OFFSET 0.000000 0.000000 -0.485475
					CHANNELS 6 Xposition Yposition Zposition Xrotation Yrotation Zrotation
					End Site
					{
						OFFSET 0.212586 0.012401 -0.015962
					}
				}
			}
		}
	}
}
MOTION
Frames: 5
Frame Time: 0.041667
0.000000 0.000000 0.000000 -0.000000 0.000000 -0.000000 0.006396 -0.000000 0.961858 0.000000 0.000000 -0.000000 0.004518 -0.000000 0.238221 0.000000 0.000000 -0.000000 -0.000153 0.000000 0.205591 0.000000 0.000000 -0.000000 0.011130 -0.000000 0.203436 0.000000 0.000000 -0.000000 -0.023968 0.201341 -0.039879 0.000001 0.000000 0.000000 0.002834 0.255826 -0.019338 0.000000 0.000000 0.000000 0.000000 0.278303 0.000000 0.000000 0.000000 -0.000000 0.000000 0.097545 0.027868 0.000000 -0.000000 -0.000000 0.000000 0.073227 -0.001151 0.000000 -0.000000 0.000000 0.036186 0.069959 -0.025989 0.000001 -0.000001 -0.000002 0.020316 0.016822 -0.014415 -0.000000 -0.000001 -0.000002 0.007269 0.030947 -0.011068 -0.000001 -0.000000 -0.000000 0.011130 0.000000 0.203436 -0.000000 -0.000001 -0.000000 -0.034927 0.000000 0.167239 -0.000000 -0.000001 -0.000000 0.011130 -0.000000 0.203436 0.000001 -0.000004 -0.000000 -0.023968 -0.201341 -0.039879 0.000000 -0.000001 0.000000 0.002834 -0.255826 -0.019338 0.000000 0.000002 -0.000000 0.000000 -0.278303 0.000000 -0.000000 0.000000 0.000000 0.000000 -0.097545 0.027868 0.000000 0.000000 0.000000 -0.000000 -0.073227 -0.001151 0.000000 0.000000 -0.000000 0.036186 -0.069959 -0.025989 0.000003 0.000000 0.000001 0.020316 -0.016822 -0.014415 0.000002 0.000001 0.000000 0.007269 -0.030947 -0.011068 -0.000001 0.000000 0.000003 0.006396 -0.000000 0.961858 0.000000 0.000000 0.000000 -0.008190 0.093423 -0.082916 0.000000 -0.000000 0.000000 0.000000 -0.000000 -0.363962 0.000000 0.000000 0.000000 0.000000 -0.000000 -0.485475 -0.000000 -0.000000 -0.000000 0.006396 0.000000 0.961858 -0.000001 0.000001 0.000000 -0.008190 -0.093423 -0.082916 -0.000001 0.000001 0.000000 0.000000 -0.000000 -0.363962 0.000000 0.000000 -0.000000 0.000000 0.000000 -0.485475 -0.000000 0.000000 -0.000000 
0.000000 0.000000 0.000000 -0.000000 0.000000 -0.000000 0.006396 -0.000000 0.961858 0.000000 0.000000 -0.000000 0.004518 -0.000000 0.238221 0.000000 0.000000 -0.000000 -0.000153 0.000000 0.205591 0.000000 0.000000 -0.000000 0.011130 -0.000000 0.203436 0.000000 0.000000 -0.000000 -0.023968 0.201341 -0.039879 0.000001 0.000000 0.000000 0.002834 0.255826 -0.019338 0.000013 0.000010 -90.000003 -0.000000 0.278303 0.000000 0.000000 0.000000 -0.000000 0.000000 0.097545 0.027868 0.000000 0.000000 0.000002 -0.000000 0.073227 -0.001151 -0.000000 0.000000 0.000000 0.036186 0.069959 -0.025989 0.000004 -0.000001 -0.000000 0.020316 0.016822 -0.014415 0.000001 0.000001 0.000001 0.007269 0.030947 -0.011068 -0.000001 -0.000000 -0.000001 0.011130 0.000000 0.203436 -0.000000 -0.000001 -0.000000 -0.034927 0.000000 0.167239 -0.000000 -0.000001 -0.000000 0.011130 -0.000000 0.203436 0.000001 -0.000004 -0.000000 -0.023968 -0.201341 -0.039879 0.000000 -0.000001 0.000000 0.002834 -0.255826 -0.019338 0.000000 0.000002 -0.000000 0.000000 -0.278303 0.000000 -0.000000 0.000000 0.000000 0.000000 -0.097545 0.027868 0.000000 0.000000 0.000000 -0.000000 -0.073227 -0.001151 0.000000 0.000000 -0.000000 0.036186 -0.069959 -0.025989 0.000003 0.000000 0.000001 0.020316 -0.016822 -0.014415 0.000002 0.000001 0.000000 0.007269 -0.030947 -0.011068 -0.000001 0.000000 0.000003 0.006396 -0.000000 0.961858 0.000000 0.000000 0.000000 -0.008190 0.093423 -0.082916 0.000000 -0.000000 0.000000 0.000000 -0.000000 -0.363962 0.000000 0.000000 0.000000 0.000000 -0.000000 -0.485475 -0.000000 -0.000000 -0.000000 0.006396 0.000000 0.961858 -0.000001 0.000001 0.000000 -0.008190 -0.093423 -0.082916 -0.000001 0.000001 0.000000 0.000000 -0.000000 -0.363962 0.000000 0.000000 -0.000000 0.000000 0.000000 -0.485475 -0.000000 0.000000 -0.000000 
0.000000 0.000000 0.000000 -0.000000 0.000000 -0.000000 0.006396 -0.000000 0.961858 0.000000 0.000000 -0.000000 0.004518 -0.000000 0.238221 0.000000 0.000000 -0.000000 -0.000153 0.000000 0.205591 0.000000 0.000000 -0.000000 0.011130 -0.000000 0.203436 0.000000 0.000000 -0.000000 -0.023968 0.201341 -0.039879 0.000001 0.000000 0.000000 0.002834 0.255826 -0.019338 -90.000009 0.000002 0.000002 0.000000 0.278303 0.000000 0.000000 0.000000 -0.000000 0.000000 0.097545 0.027868 0.000000 -0.000000 -0.000000 0.000000 0.073227 -0.001151 0.000000 -0.000000 -0.000000 0.036186 0.069959 -0.025989 0.000003 -0.000003 -0.000003 0.020316 0.016822 -0.014415 -0.000002 -0.000000 -0.000003 0.007269 0.030947 -0.011068 0.000001 -0.000000 -0.000000 0.011130 0.000000 0.203436 -0.000000 -0.000001 -0.000000 -0.034927 0.000000 0.167239 -0.000000 -0.000001 -0.000000 0.011130 -0.000000 0.203436 0.000001 -0.000004 -0.000000 -0.023968 -0.201341 -0.039879 0.000000 -0.000001 0.000000 0.002834 -0.255826 -0.019338 0.000000 0.000002 -0.000000 0.000000 -0.278303 0.000000 -0.000000 0.000000 0.000000 0.000000 -0.097545 0.027868 0.000000 0.000000 0.000000 -0.000000 -0.073227 -0.001151 0.000000 0.000000 -0.000000 0.036186 -0.069959 -0.025989 0.000003 0.000000 0.000001 0.020316 -0.016822 -0.014415 0.000002 0.000001 0.000000 0.007269 -0.030947 -0.011068 -0.000001 0.000000 0.000003 0.006396 -0.000000 0.961858 0.000000 0.000000 0.000000 -0.008190 0.093423 -0.082916 0.000000 -0.000000 0.000000 0.000000 -0.000000 -0.363962 0.000000 0.000000 0.000000 0.000000 -0.000000 -0.485475 -0.000000 -0.000000 -0.000000 0.006396 0.000000 0.961858 -0.000001 0.000001 0.000000 -0.008190 -0.093423 -0.082916 -0.000001 0.000001 0.000000 0.000000 -0.000000 -0.363962 0.000000 0.000000 -0.000000 0.000000 0.000000 -0.485475 -0.000000 0.000000 -0.000000 
0.000000 0.000000 0.000000 -0.000000 0.000000 -0.000000 0.006396 -0.000000 0.961858 0.000000 0.000000 -0.000000 0.004518 -0.000000 0.238221 0.000000 0.000000 -0.000000 -0.000153 0.000000 0.205591 0.000000 0.000000 -0.000000 0.011130 -0.000000 0.203436 0.000000 0.000000 -0.000000 -0.023968 0.201341 -0.039879 0.000001 0.000000 0.000000 0.002834 0.255826 -0.019338 0.000000 0.000000 0.000000 0.000000 0.278303 0.000000 0.000000 0.000000 -0.000000 0.000000 0.097545 0.027868 0.000000 -0.000000 -0.000000 0.000000 0.073227 -0.001151 0.000000 -0.000000 0.000000 0.036186 0.069959 -0.025989 0.000001 -0.000001 -0.000002 0.020316 0.016822 -0.014415 -0.000000 -0.000001 -0.000002 0.007269 0.030947 -0.011068 -0.000001 -0.000000 -0.000000 0.011130 0.000000 0.203436 -0.000000 -0.000001 -0.000000 -0.034927 0.000000 0.167239 -0.000000 -0.000001 -0.000000 0.011130 -0.000000 0.203436 0.000001 -0.000004 -0.000000 -0.023968 -0.201341 -0.039879 0.000000 -0.000001 0.000000 0.002834 -0.255826 -0.019338 0.000000 0.000002 -0.000000 0.000000 -0.278303 0.000000 -0.000000 0.000000 0.000000 0.000000 -0.097545 0.027868 0.000000 0.000000 0.000000 -0.000000 -0.073227 -0.001151 0.000000 0.000000 -0.000000 0.036186 -0.069959 -0.025989 0.000003 0.000000 0.000001 0.020316 -0.016822 -0.014415 0.000002 0.000001 0.000000 0.007269 -0.030947 -0.011068 -0.000001 0.000000 0.000003 0.006396 -0.000000 0.961858 0.000000 0.000000 0.000000 -0.008190 0.093423 -0.082916 0.000000 -0.000000 0.000000 0.000000 -0.000000 -0.363962 -0.000000 89.999989 0.000000 0.000000 -0.000000 -0.485475 -0.000000 -0.000000 0.000000 0.006396 0.000000 0.961858 -0.000001 0.000001 0.000000 -0.008190 -0.093423 -0.082916 -0.000001 0.000001 0.000000 0.000000 -0.000000 -0.363962 0.000000 0.000000 -0.000000 0.000000 0.000000 -0.485475 -0.000000 0.000000 -0.000000 
-0.000000 0.000000 -0.364140 0.000000 10.492779 -0.000001 0.006396 -0.000000 0.961858 1.728680 24.825654 -6.522138 0.004518 -0.000000 0.238221 2.433193 11.952540 -11.597893 -0.000153 -0.000000 0.205591 1.119435 19.508446 -0.251339 0.011130 -0.000000 0.203436 15.468712 -12.755547 -28.858864 -0.023968 0.201341 -0.039879 9.557699 -49.996431 -47.957538 0.002834 0.255826 -0.019338 -0.000006 0.000011 -80.907286 0.000000 0.278303 0.000000 2.324725 3.376315 -23.464768 -0.000000 0.097545 0.027868 0.000000 -0.000002 -0.000001 0.000000 0.073227 -0.001151 -0.000001 -0.000001 0.000001 0.036186 0.069959 -0.025989 0.000003 -0.000007 -0.000009 0.020316 0.016822 -0.014415 -0.000000 -0.000001 -0.000003 0.007269 0.030947 -0.011068 -0.000003 0.000001 0.000002 0.011130 -0.000000 0.203436 -8.018191 11.004204 13.293196 -0.034927 -0.000000 0.167239 0.000003 -24.561273 0.000005 0.011130 -0.000000 0.203436 17.364921 -0.621568 -31.452553 -0.023968 -0.201341 -0.039879 2.138489 0.424170 -7.041791 0.002834 -0.255826 -0.019338 -0.000003 -0.000001 -0.000005 0.000000 -0.278303 0.000000 -0.000003 0.000003 0.000004 0.000000 -0.097545 0.027868 -0.000003 -0.000002 0.000000 -0.000000 -0.073227 -0.001151 -0.000000 0.000000 0.000002 0.036186 -0.069959 -0.025989 -0.000001 0.000001 0.000004 0.020316 -0.016822 -0.014415 0.000006 0.000003 -0.000005 0.007269 -0.030947 -0.011068 0.000001 -0.000001 -0.000002 0.006396 -0.000000 0.961858 0.000000 0.000001 -0.000001 -0.008190 0.093423 -0.082916 0.000010 -104.867241 -0.000020 0.000000 0.000000 -0.363962 -0.000002 113.968980 0.000012 -0.000000 -0.000000 -0.485475 -0.000002 -16.257208 -0.000002 0.006396 -0.000000 0.961858 -0.000002 0.000002 -0.000000 -0.008190 -0.093423 -0.082916 0.000003 48.109407 -0.000015 0.000000 -0.000000 -0.363962 -0.056206 18.822395 -0.307227 0.000000 0.000000 -0.485475 -0.000000 -0.000001 -0.000000 
